<svg width="34" height="26" viewBox="0 0 34 26" fill="none" xmlns="http://www.w3.org/2000/svg">
<path d="M2.375 18.625L10.1135 10.8865C10.4269 10.5731 10.799 10.3245 11.2084 10.1549C11.6179 9.98527 12.0568 9.89797 12.5 9.89797C12.9432 9.89797 13.3821 9.98527 13.7916 10.1549C14.201 10.3245 14.5731 10.5731 14.8865 10.8865L22.625 18.625M20.375 16.375L22.4885 14.2615C22.8019 13.9481 23.174 13.6995 23.5834 13.5299C23.9929 13.3603 24.4318 13.273 24.875 13.273C25.3182 13.273 25.7571 13.3603 26.1666 13.5299C26.576 13.6995 26.9481 13.9481 27.2615 14.2615L31.625 18.625M4.625 24.25H29.375C29.9717 24.25 30.544 24.0129 30.966 23.591C31.3879 23.169 31.625 22.5967 31.625 22V4C31.625 3.40326 31.3879 2.83097 30.966 2.40901C30.544 1.98705 29.9717 1.75 29.375 1.75H4.625C4.02826 1.75 3.45597 1.98705 3.03401 2.40901C2.61205 2.83097 2.375 3.40326 2.375 4V22C2.375 22.5967 2.61205 23.169 3.03401 23.591C3.45597 24.0129 4.02826 24.25 4.625 24.25ZM20.375 7.375H20.387V7.387H20.375V7.375ZM20.9375 7.375C20.9375 7.52418 20.8782 7.66726 20.7727 7.77275C20.6673 7.87824 20.5242 7.9375 20.375 7.9375C20.2258 7.9375 20.0827 7.87824 19.9773 7.77275C19.8718 7.66726 19.8125 7.52418 19.8125 7.375C19.8125 7.22582 19.8718 7.08274 19.9773 6.97725C20.0827 6.87176 20.2258 6.8125 20.375 6.8125C20.5242 6.8125 20.6673 6.87176 20.7727 6.97725C20.8782 7.08274 20.9375 7.22582 20.9375 7.375Z" stroke="#117EFD" stroke-width="3" stroke-linecap="round" stroke-linejoin="round"/>
</svg>
